<svg width="907" height="907" viewBox="0 0 907 907" fill="none" xmlns="http://www.w3.org/2000/svg">
<path d="M394.733 77.2864C393.634 77.3364 389.588 77.6362 385.742 77.9361C350.128 80.6345 317.511 87.9303 282.846 100.923C257.721 110.367 235.843 121.461 212.666 136.602C200.329 144.697 182.097 158.439 174.455 165.385C173.356 166.385 169.81 169.633 166.563 172.631C109.97 224.401 72.1084 297.309 60.8198 376.263C57.9227 396.601 57.1735 407.095 57.0236 429.482C56.8738 453.868 57.3733 461.813 60.3702 482.851C63.1674 502.74 66.564 517.481 73.4071 539.918C76.0045 548.463 81.1992 561.056 84.9454 567.902C90.3899 577.846 91.339 582.493 89.2911 589.189C88.1422 593.037 86.7936 594.636 78.8516 601.582C74.7058 605.23 73.3571 607.629 73.3072 611.327C73.3072 616.923 77.5529 621.221 87.2931 625.319C102.228 631.665 123.107 634.613 152.977 634.663C176.004 634.663 190.739 632.764 205.674 627.767C233.695 618.472 250.029 599.583 261.367 563.404C266.212 547.963 266.762 546.264 268.96 540.967C270.158 537.919 271.957 534.021 272.956 532.223C281.847 516.082 285.893 510.385 295.283 500.741C314.664 480.952 332.496 469.259 354.923 461.763C367.31 457.616 374.703 456.466 401.975 454.468C418.309 453.268 437.539 451.769 446.181 450.97C454.822 450.17 470.806 448.821 490.886 447.222C497.879 446.672 511.814 445.523 521.854 444.723C537.538 443.474 549.177 442.525 585.041 439.726C601.024 438.477 616.209 437.228 618.507 436.978C619.905 436.828 625.15 436.428 630.245 435.978C646.029 434.729 652.123 434.229 663.461 433.23C674.201 432.231 689.935 430.981 708.915 429.482C714.16 429.032 719.555 428.633 720.903 428.483C723.451 428.233 734.19 427.333 750.623 425.984C755.718 425.584 767.307 424.685 776.347 423.985C814.109 421.037 822.401 419.988 831.442 416.989C840.732 413.841 846.227 410.293 847.875 406.296C849.673 401.998 848.175 396.451 844.179 392.703C840.383 389.106 831.642 384.058 815.808 376.313C781.592 359.573 771.352 354.176 764.809 349.479C761.812 347.38 759.065 344.182 757.466 341.033C757.067 340.184 755.618 336.036 754.22 331.789C744.629 302.256 742.282 295.36 738.885 286.965C728.296 260.98 713.411 234.595 697.477 213.657C694.13 209.31 690.984 205.112 690.434 204.363C683.341 194.818 664.61 175.08 652.223 164.186C608.017 125.059 551.175 97.1749 489.437 84.1824C476.6 81.534 457.369 78.9355 440.936 77.6862C432.295 77.0366 401.326 76.7368 394.733 77.2864ZM414.213 129.056C414.563 129.506 415.112 132.105 415.462 134.803C415.811 137.452 416.71 144.148 417.51 149.644C419.008 159.839 420.107 167.634 424.203 197.367C425.502 206.561 428.898 230.647 431.745 250.836C434.642 271.024 437.39 290.713 437.939 294.56C439.587 307.253 450.377 382.359 451.725 390.805C452.724 397.051 452.924 399.35 452.524 400.099C451.875 401.298 451.575 401.298 430.297 402.548C417.41 403.297 415.362 403.347 414.713 402.698C414.313 402.298 413.514 398.65 412.715 393.503C412.015 388.806 410.467 378.362 409.218 370.266C407.969 362.171 406.271 351.228 405.522 346.031C402.825 328.441 396.381 288.064 396.181 287.864C396.031 287.714 392.735 288.264 376.501 291.362C372.255 292.162 364.164 293.461 358.519 294.311C344.583 296.359 345.832 295.96 346.182 298.458C346.332 299.607 347.48 306.154 348.729 313.05C349.978 319.896 352.525 334.287 354.473 345.031C358.319 366.419 360.817 379.911 362.765 390.255C364.463 399.1 365.512 405.246 365.512 406.595C365.512 407.195 365.163 407.995 364.763 408.394C364.064 409.094 349.229 412.892 334.843 416.04C329.399 417.239 328.799 417.239 328.25 416.54C327.95 416.09 327.201 413.441 326.651 410.593C323.405 394.253 318.809 370.216 317.311 362.021C316.412 356.774 313.565 341.833 311.117 328.791C308.62 315.748 306.222 303.255 305.822 301.057C305.423 298.858 303.525 288.864 301.577 278.82C299.629 268.775 297.231 256.433 296.332 251.335C295.383 246.238 294.084 238.943 293.385 235.095C292.686 231.247 291.737 226.5 291.337 224.601C290.937 222.652 289.439 215.156 288.09 207.861C286.692 200.565 284.544 189.421 283.345 183.125C281.097 171.282 279.899 164.736 279.399 160.988C279.099 159.089 279.249 158.689 280.448 157.59C282.546 155.641 290.588 151.943 301.826 147.746C317.96 141.699 318.11 141.699 319.758 150.244C320.707 155.091 325.902 183.675 328.3 197.367C329.299 203.013 331.097 213.108 332.296 219.854C333.495 226.6 335.093 235.944 335.842 240.692C336.591 245.439 337.391 249.586 337.59 249.886C337.89 250.386 338.539 250.386 340.637 249.886C342.086 249.537 344.633 248.987 346.282 248.587C347.93 248.237 353.324 247.038 358.269 245.939C369.059 243.49 375.302 242.191 382.945 240.842C386.091 240.292 388.789 239.742 388.889 239.592C389.138 239.342 388.039 231.847 383.944 205.612C374.353 143.998 373.005 134.203 373.904 132.205C374.703 130.406 375.902 130.056 384.343 129.156C395.032 128.057 395.382 128.057 404.872 128.107C412.565 128.157 413.614 128.257 414.213 129.056ZM447.479 128.407C468.508 130.506 503.423 138.751 523.603 146.396C526.35 147.396 529.497 148.545 530.595 148.895C542.583 152.693 576.399 168.533 578.098 171.182C578.847 172.281 578.847 172.681 578.098 175.779C577.148 179.777 573.702 188.922 570.955 194.918C568.457 200.265 567.159 201.364 563.362 201.364C560.515 201.364 556.12 199.965 532.643 191.67C527.449 189.821 523.103 188.472 522.953 188.622C522.803 188.772 522.604 229.198 522.504 278.47C522.304 391.854 522.254 399.05 521.455 399.849C520.955 400.349 516.11 400.549 501.625 400.649L482.394 400.799V289.613V178.378L481.295 178.178C480.646 178.028 477.1 177.428 473.403 176.879C462.564 175.18 447.28 171.981 444.832 170.932C442.984 170.133 442.435 169.583 441.735 167.784C440.736 165.435 439.238 149.894 438.638 136.252C438.239 126.858 437.589 127.407 447.479 128.407ZM255.373 173.031C255.773 173.681 256.772 178.128 257.571 182.925C258.97 191.22 264.514 221.753 266.662 232.846C267.211 235.745 268.56 243.04 269.609 249.087C271.807 261.33 271.957 262.079 275.803 282.817C277.351 290.913 279.149 300.907 279.849 305.054C282.146 318.347 282.546 320.445 283.795 326.792C284.494 330.24 286.292 339.984 287.841 348.529C289.389 357.024 291.487 368.617 292.586 374.264C294.734 385.708 297.181 398.8 298.28 405.246C298.68 407.595 299.729 413.192 300.578 417.689C301.427 422.236 302.076 426.584 301.976 427.433C301.876 428.633 301.127 429.482 298.33 431.631C295.233 433.98 291.337 437.078 277.951 447.871C272.156 452.519 269.359 454.268 268.46 453.918C267.411 453.518 259.319 442.824 250.328 429.982C246.482 424.485 241.088 416.839 238.391 412.992C235.693 409.144 231.897 403.747 229.949 400.999C228.051 398.25 221.607 389.156 215.663 380.76C209.719 372.365 201.977 361.272 198.431 356.125C194.884 350.928 191.838 346.63 191.638 346.48C190.439 345.731 190.839 347.33 197.132 368.018C198.481 372.415 201.777 383.659 204.375 393.003C207.022 402.348 209.52 410.993 209.919 412.242C211.917 418.738 216.413 434.279 219.16 443.974C220.808 450.02 224.105 461.464 226.403 469.459C232.097 489.247 234.694 499.092 234.694 501.191C234.744 502.14 234.045 504.489 233.246 506.437C227.002 521.079 220.109 536.52 218.361 539.668C215.514 544.865 214.714 544.915 210.219 540.318C206.822 536.82 198.631 527.325 185.194 511.235C180.899 506.138 175.404 499.541 172.957 496.643C155.924 476.505 145.434 464.262 134.795 452.019C128.052 444.274 121.309 436.528 119.81 434.729C118.262 432.93 115.215 429.432 113.017 426.984C107.323 420.637 106.274 419.138 106.274 417.289C106.274 416.39 107.273 408.694 108.472 400.099C109.67 391.504 111.019 381.81 111.469 378.512C112.618 370.017 113.866 365.069 114.865 364.87C115.365 364.77 117.812 367.318 121.808 372.065C125.155 376.113 129.5 381.26 131.448 383.509C133.397 385.757 139.291 392.853 144.585 399.3C149.83 405.746 157.123 414.591 160.719 418.988C164.315 423.386 169.11 429.232 171.358 431.981C181.048 443.874 184.795 448.221 185.244 447.921C185.544 447.772 185.594 447.272 185.444 446.772C185.244 446.322 182.747 437.977 179.9 428.233C177.052 418.488 174.006 408.244 173.206 405.496C172.407 402.748 170.06 394.652 168.012 387.506C165.964 380.361 161.918 366.169 158.971 356.025C156.024 345.831 152.977 335.287 152.228 332.538C151.478 329.79 148.481 319.196 145.584 309.052C142.687 298.858 140.19 289.763 140.04 288.764C139.64 286.565 140.739 284.466 147.482 274.122C154.525 263.329 161.768 253.684 163.866 252.385C166.313 250.886 168.411 250.886 170.06 252.385C171.258 253.534 175.954 259.631 184.944 272.023C187.142 275.022 191.188 280.519 193.935 284.266C196.683 288.014 201.328 294.41 204.175 298.458C207.072 302.506 212.017 309.502 215.214 313.949C218.361 318.397 224.554 327.092 228.95 333.288C233.396 339.484 239.839 348.779 243.385 354.026C250.279 364.27 250.928 365.119 251.477 364.62C251.627 364.42 250.828 359.922 249.679 354.626C241.487 317.597 231.697 270.175 225.404 237.094C218.061 198.266 218.011 198.016 219.41 196.018C220.359 194.668 227.202 189.421 239.39 180.626C252.177 171.432 253.825 170.682 255.373 173.031ZM616.259 210.359C637.637 213.158 661.064 232.147 673.651 256.832C677.098 263.628 677.997 266.127 677.197 267.076C676.898 267.476 673.851 269.525 670.554 271.574C667.208 273.673 662.762 276.471 660.714 277.82C656.169 280.768 654.52 281.268 653.172 280.019C652.672 279.569 650.774 277.021 649.026 274.372C643.731 266.427 635.29 258.731 628.447 255.533C624.051 253.484 621.154 252.785 616.559 252.785C612.113 252.735 610.765 253.084 607.118 254.983C598.877 259.281 592.333 271.973 590.735 286.765C590.035 293.261 590.435 307.753 591.484 314.049C594.331 330.639 600.974 340.484 614.761 348.379C619.006 350.828 622.852 351.777 628.247 351.827C634.69 351.827 636.239 351.527 640.984 349.279C645.679 347.03 649.276 343.732 653.671 337.585C656.418 333.788 656.818 333.438 658.067 333.688C659.815 334.037 679.545 347.18 682.442 349.928C684.54 351.927 684.59 352.127 684.24 353.876C683.291 358.074 677.947 365.519 670.704 372.815C662.362 381.16 655.419 385.558 645.679 388.706C638.586 390.954 635.29 391.454 625.749 391.454C612.213 391.454 606.469 390.155 594.531 384.258C580.745 377.462 571.654 367.818 562.913 350.628C555.021 335.137 551.524 322.194 550.276 303.805C549.327 289.663 550.425 273.872 553.123 263.728C559.416 239.842 572.503 221.003 587.438 214.407C596.229 210.509 606.319 209.11 616.259 210.359Z" fill="#E25821"/>
<path d="M786.587 451.519C783.14 451.869 774.499 452.619 767.356 453.218C760.213 453.768 734.24 455.917 709.664 457.966C685.089 459.964 657.567 462.263 648.476 462.963C639.435 463.662 623.901 464.961 614.011 465.761C604.121 466.561 590.635 467.66 584.041 468.21C577.448 468.759 569.606 469.409 566.559 469.709C563.562 469.959 555.32 470.658 548.327 471.208C534.491 472.307 493.682 475.605 474.901 477.154C468.458 477.704 461.015 478.254 458.418 478.454C449.977 478.953 446.88 479.303 447.03 479.703C447.129 479.953 452.274 485.35 458.468 491.796C470.056 503.789 482.344 517.081 488.787 524.627C490.835 526.975 493.533 530.074 494.781 531.423C496.08 532.822 500.076 537.07 503.622 540.917C507.219 544.765 512.064 550.062 514.362 552.661C516.709 555.259 518.907 557.708 519.257 558.057C519.606 558.457 522.753 562.055 526.2 566.103C538.587 580.395 543.182 584.742 552.323 590.888C564.161 598.834 576.649 603.831 599.026 609.628C603.422 610.777 610.015 612.476 613.661 613.425C617.258 614.375 623.252 615.874 626.898 616.823C652.122 623.37 667.407 627.017 691.183 632.114C719.405 638.161 733.94 640.51 745.628 640.959C752.271 641.209 752.921 641.159 753.67 640.31C754.969 638.811 762.861 623.819 766.857 615.174C770.603 607.029 774.549 597.385 778.595 586.391C789.434 556.708 796.627 520.529 797.925 488.698C798.425 477.454 798.375 461.064 797.875 455.067L797.476 450.72L795.178 450.77C793.879 450.82 790.033 451.12 786.587 451.519ZM770.653 479.303C770.753 481.252 770.553 489.447 770.303 492.446C768.855 512.184 767.906 519.43 764.059 538.419C760.014 558.407 754.669 576.097 746.877 595.386C741.183 609.528 739.185 613.625 738.036 613.625C735.438 613.625 707.916 607.079 707.117 606.279C706.817 605.98 707.866 603.231 709.565 599.583C717.756 582.393 722.002 571.3 726.148 556.408C732.991 532.023 736.288 513.084 737.636 490.447C737.936 485.55 738.236 481.402 738.335 481.352C738.385 481.252 742.731 480.852 747.926 480.403C753.121 480.003 759.264 479.453 761.612 479.253C768.355 478.604 770.603 478.604 770.653 479.303Z" fill="#E25821"/>
<path d="M461.514 543.266C460.665 545.815 458.966 551.512 457.668 555.909C456.369 560.306 454.071 567.852 452.573 572.649C451.024 577.447 447.728 588.49 445.18 597.135C442.633 605.78 439.036 617.823 437.238 623.87C433.392 636.512 428.497 652.903 428.098 654.352C427.548 656.401 425.95 658.999 424.152 660.798C421.454 663.497 418.407 664.746 413.662 664.996C408.667 665.246 406.869 664.746 397.229 660.099C393.383 658.25 379.447 651.554 366.26 645.207C353.073 638.911 338.038 631.665 332.794 629.117C327.599 626.568 316.36 621.171 307.819 617.124C299.328 613.026 288.888 607.979 284.642 605.88C280.447 603.781 276.8 602.032 276.6 601.982C276.401 601.932 274.852 604.581 273.104 607.879C271.406 611.177 268.559 615.774 266.86 618.123C261.316 625.619 251.276 634.613 242.885 639.71C241.386 640.61 240.237 641.559 240.337 641.859C240.387 642.109 243.034 643.508 246.181 644.957C251.925 647.606 255.422 649.205 266.361 654.402C269.658 655.951 280.547 660.998 290.586 665.595C300.626 670.193 312.514 675.74 317.06 677.838C332.494 685.084 339.787 688.482 353.273 694.728C360.716 698.127 372.254 703.523 378.997 706.672C385.74 709.87 392.384 712.968 393.732 713.568C409.966 720.913 417.608 725.81 423.153 732.357C427.099 737.054 426.15 735.505 441.184 761.54C442.083 763.039 445.63 769.235 449.126 775.282C452.623 781.328 456.519 788.074 457.818 790.273C460.015 794.171 467.158 806.314 472.902 816.008C474.451 818.607 476.898 822.854 478.347 825.353C479.845 827.901 481.244 830 481.494 830C481.743 830 484.591 828.451 487.787 826.552C505.669 816.008 517.757 809.062 522.752 806.564C524.45 805.714 525.849 804.765 525.849 804.465C525.849 804.165 522.952 799.068 519.455 793.121C515.909 787.125 511.014 778.88 508.616 774.782C506.169 770.634 500.674 761.34 496.379 754.044C483.542 732.357 474.101 716.016 472.503 712.768C468.856 705.522 468.357 699.726 470.605 691.081C472.353 684.335 478.896 662.297 484.89 642.859C487.488 634.413 490.185 625.619 500.175 592.438C501.673 587.541 502.872 583.243 502.872 582.943C502.872 582.644 500.774 579.995 498.277 577.097C488.586 566.053 478.597 554.81 475.899 551.911C474.301 550.262 471.004 546.664 468.457 543.916C465.909 541.168 463.662 538.869 463.412 538.769C463.162 538.669 462.313 540.718 461.514 543.266Z" fill="#E25821"/>
</svg>
