<svg width="1230" height="336" viewBox="0 0 1230 336" fill="none" xmlns="http://www.w3.org/2000/svg">
<path d="M599.154 0.0386129C598.286 0.140652 597.877 0.752942 597.214 2.89598C596.577 4.88593 595.25 9.17198 594.714 10.9323C594.485 11.6212 594.153 12.6161 594 13.1009C593.669 13.9938 592.878 16.545 591.295 21.775C590.861 23.2547 590.173 25.4232 589.765 26.6223C589.381 27.8214 588.692 29.9899 588.234 31.4697C587.8 32.9493 587.111 35.118 586.728 36.317C586.346 37.5161 585.732 39.5061 585.324 40.7817C584.942 42.0318 584.406 43.7666 584.125 44.6085C583.87 45.4504 583.488 46.6495 583.309 47.2872C581.906 51.905 581.267 53.9203 580.936 54.7367C580.707 55.2726 579.66 56.5227 578.588 57.5431C572.721 63.1559 572.669 63.2324 571.827 67.3143C571.343 69.5338 570.781 71.8555 570.271 73.4373C570.092 73.9985 569.735 75.1976 569.506 76.1162C568.178 81.0654 566.597 84.4841 562.004 92.3164C561.341 93.4389 560.345 95.4288 559.785 96.7555C558.688 99.4087 557.82 100.48 556.569 100.735C555.065 101.042 553.201 101.705 551.136 102.674C547.792 104.231 546.135 104.715 544.45 104.639C542.97 104.562 542.97 104.562 543.046 103.797C543.175 102.547 544.476 99.0005 544.884 98.822C545.087 98.6943 545.573 98.4903 545.981 98.3371C546.9 97.9801 546.874 97.2402 545.904 94.3828C545.165 92.2399 545.113 91.2448 545.675 90.5049C545.802 90.3519 546.109 89.561 546.364 88.7191C546.798 87.2395 546.824 87.2138 548.2 86.7546C548.967 86.4996 549.68 86.1934 549.807 86.0914C549.911 85.9894 549.757 85.3515 549.477 84.6881C549.17 84.0504 548.762 82.7236 548.558 81.7797C547.256 75.6313 544.832 72.1617 540.036 69.5593C533.836 66.1918 527.636 65.7581 522.277 68.3349C518.706 70.0442 516.92 72.4167 515.541 77.2641C514.597 80.5552 514.317 81.8307 514.163 83.4125C514.087 84.4076 513.833 85.6577 513.603 86.1934C513.398 86.7036 513.271 87.2905 513.323 87.469C513.5 87.8772 515.643 88.4641 516.205 88.2599C516.715 88.0557 517.838 88.7446 517.838 89.2293C517.838 89.408 518.017 89.9182 518.246 90.3519C519.063 92.0102 519.497 100.072 518.833 101.628C517.788 104.205 516.945 104.919 514.496 105.327C513.143 105.557 510.975 106.603 508.423 108.287C507.402 108.976 505.667 109.843 504.621 110.226C502.172 111.119 500.08 113.058 498.346 116.043C497.681 117.165 497.043 118.262 496.916 118.466C496.788 118.67 496.432 119.308 496.151 119.844C495.512 121.018 493.956 123.084 491.431 126.12C489.312 128.671 489.288 128.697 486.71 133.391C486.404 133.952 485.944 134.743 485.689 135.177C485.179 135.993 484.95 136.376 483.673 138.723C481.684 142.346 480.331 146.708 480.688 148.239C480.815 148.673 481.837 149.897 483.215 151.25C484.516 152.5 486.43 154.464 487.475 155.612C489.134 157.398 492.425 160.102 493.6 160.638C493.803 160.74 494.568 161.174 495.257 161.582C495.972 162.016 497.272 162.705 498.192 163.138C504.673 166.225 506.689 167.501 509.674 170.46C510.592 171.353 511.944 172.553 512.683 173.113C513.96 174.109 514.267 174.72 513.781 175.256C513.424 175.613 512.582 177.858 512.148 179.567C511.23 183.114 510.923 184.875 510.668 188.371C510.311 193.65 509.903 271.821 510.26 272.253C510.413 272.459 510.899 272.56 511.435 272.508L512.353 272.433L512.53 267.713C512.634 265.111 512.837 246.461 512.99 226.256C513.118 205.999 513.347 188.777 513.5 187.859C513.627 186.941 513.858 185.359 513.986 184.339C514.267 182.349 514.496 181.43 515.338 178.547C516.027 176.201 516.231 175.997 518.043 175.997C519.343 175.997 519.65 175.894 520.771 175.027C522.175 173.955 522.558 174.159 521.614 175.436C520.747 176.583 520.313 177.782 520.492 178.497C520.568 178.802 520.976 179.466 521.411 179.952C521.819 180.41 522.175 180.998 522.175 181.227C522.175 181.456 521.538 182.374 520.771 183.267C519.419 184.849 519.369 184.976 519.369 186.405C519.369 187.221 519.547 188.293 519.778 188.829C520.007 189.391 520.236 190.767 520.313 192.196C520.467 195.411 520.467 195.437 521.793 197.375L522.94 199.059V201.535C522.94 203.473 522.813 204.418 522.329 205.82C520.771 210.464 520.389 214.418 521.283 216.178C522.916 219.367 525.492 220.949 527.356 219.955C528.477 219.367 531.361 216.867 531.871 216.05C532.279 215.387 532.381 214.801 532.381 212.964C532.381 210.285 531.821 208.295 530.365 205.617L529.371 203.804L529.192 199.391C528.963 194.289 529.116 194.034 530.723 196.457C532.177 198.676 534.55 200.872 536.694 201.993L538.582 202.988L538.403 205.183C538.326 206.382 538.122 208.703 537.995 210.311C537.74 213.576 537.077 334.555 537.306 335.166C537.535 335.728 539.654 335.728 539.883 335.166C539.959 334.937 540.036 320.345 540.036 302.716C540.062 265.494 540.47 216.255 540.801 211.458C541.108 206.968 541.516 203.856 541.873 203.651C542.231 203.422 543.378 203.754 544.731 204.468C545.675 204.954 548.379 207.657 552.564 212.223C555.497 215.438 559.198 218.602 563.05 221.128C563.97 221.74 564.454 222.224 564.352 222.455C564.173 222.965 561.952 224.112 561.341 224.037C560.958 223.985 560.805 223.73 560.703 222.939C560.602 222.072 560.473 221.919 559.887 221.841C559.325 221.766 559.07 221.969 558.305 223.168C557.437 224.469 557.258 224.597 555.625 225.083C554.657 225.388 553.713 225.618 553.508 225.618C552.564 225.618 547.511 227.812 546.619 228.629C545.063 230.005 547.511 236.588 551.084 240.568C552.436 242.074 552.615 242.405 553.329 244.65C555.243 250.722 556.288 252.865 558.815 255.798C559.785 256.896 560.933 258.222 561.341 258.707L562.106 259.599L562.004 266.514C561.978 270.341 561.825 273.658 561.697 273.887C561.52 274.218 561.138 274.345 560.345 274.345C558.891 274.345 558.535 274.754 558.891 276.055C559.401 277.867 559.249 278.862 558.202 280.417C556.493 282.943 554.631 286.26 554.298 287.332C554.044 288.173 554.044 288.659 554.324 289.806C554.631 291.006 554.886 291.414 556.009 292.408C557.336 293.608 559.759 294.96 561.468 295.496C563.076 296.006 563.944 296.719 565.143 298.558C566.698 300.981 568.459 302.614 570.552 303.634C571.522 304.118 572.516 304.604 572.747 304.732C573.002 304.859 573.842 305.19 574.659 305.445C579.431 307.079 583.844 307.18 585.427 305.7C585.708 305.445 586.065 304.604 586.244 303.813C586.626 302.078 586.372 301.389 584.508 299.349C580.707 295.114 578.997 292.51 576.523 287.28C575.221 284.499 574.94 283.071 575.475 281.668C575.834 280.776 575.348 280.264 574.099 280.162L573.078 280.087L572.874 278.172C572.568 275.495 572.848 268.811 573.358 266.616C574.123 263.275 575.272 259.065 575.706 258.017C576.42 256.258 577.798 251.18 579.482 243.986C580.426 239.98 581.472 237.098 582.315 236.179C582.723 235.721 583.155 235.567 583.922 235.567C585.173 235.567 585.248 235.414 585.682 232.123C585.989 229.802 586.396 227.123 586.652 225.796C586.78 225.057 587.341 224.724 589.917 223.756C591.602 223.118 594.995 221.714 595.276 221.536C595.786 221.178 599.664 219.112 601.578 218.168C603.772 217.096 604.87 216.969 606.553 217.606C607.395 217.939 607.728 217.965 608.007 217.734C609.002 216.919 613.697 210.285 614.258 208.932C615.075 206.918 615.228 204.569 614.667 202.402C614.131 200.31 613.366 199.009 611.681 197.325C610.432 196.1 605.635 192.708 603.567 191.584C603.083 191.329 601.757 190.512 600.634 189.773C598.491 188.395 594.179 185.819 594 185.819C593.95 185.819 592.647 185.231 591.142 184.518C585.019 181.609 584.151 181.227 583.896 181.227C583.743 181.227 583.386 181.099 583.079 180.92C582.416 180.538 581.396 180.155 578.947 179.312C574.531 177.834 573.46 177.093 572.643 175.001C572.235 173.981 571.751 173.24 571.062 172.706C570.526 172.272 569.889 171.506 569.634 171.022C569.2 170.154 567.592 164.057 567.592 163.24C567.592 163.011 567.26 161.99 566.826 160.995C566.113 159.209 565.424 155.332 565.704 154.592C565.78 154.413 566.29 153.877 566.852 153.418C568.638 151.989 569.046 151.097 569.353 147.933C569.506 146.377 569.684 143.851 569.761 142.32C569.939 139.157 570.45 137.141 571.444 135.815C572.185 134.82 572.95 133.008 572.95 132.268C572.95 131.988 573.282 131.503 573.691 131.171C575.171 129.921 575.171 129.207 573.665 127.957C572.848 127.268 572.797 126.86 573.307 125.304C573.486 124.691 573.842 123.467 574.099 122.548C574.354 121.63 574.685 120.431 574.864 119.87C575.043 119.308 575.4 118.16 575.629 117.318C575.884 116.476 576.242 115.328 576.395 114.767C576.573 114.206 576.931 113.058 577.16 112.216C577.925 109.639 578.359 108.185 578.692 107.113C578.869 106.552 579.228 105.404 579.457 104.562C579.712 103.72 580.044 102.572 580.222 102.011C580.401 101.45 580.757 100.302 580.988 99.4597C581.243 98.6178 581.6 97.4697 581.753 96.9085C581.932 96.3473 582.263 95.1992 582.518 94.3573C582.773 93.5154 583.105 92.3164 583.309 91.6785C585.248 85.2495 586.218 82.0859 587.469 78.0295C587.901 76.6264 588.26 75.3253 588.26 75.1721C588.26 74.9936 588.413 74.4834 588.616 74.024C588.795 73.5648 589.152 72.4934 589.407 71.6515C589.662 70.8096 590.02 69.6105 590.198 68.9726C590.403 68.3349 590.887 66.6254 591.321 65.1458C591.755 63.6661 592.239 61.9568 592.444 61.3191C592.621 60.6812 592.98 59.5331 593.209 58.7677C593.438 58.0023 593.974 56.2675 594.382 54.9409C594.79 53.6143 595.326 51.8795 595.557 51.1141C596.194 48.9711 596.704 47.2617 597.063 46.1393C597.24 45.5779 597.572 44.4298 597.827 43.5879C598.057 42.746 598.415 41.5979 598.592 41.0367C598.771 40.4755 599.128 39.3274 599.359 38.4855C600.124 35.9343 600.558 34.4546 600.889 33.3832C601.068 32.8218 601.578 31.1635 602.038 29.6839C602.47 28.2041 603.159 25.9079 603.593 24.5813C604.001 23.2547 604.511 21.5199 604.742 20.7546C604.971 19.9892 605.302 18.8921 605.481 18.3309C606.043 16.596 607.319 12.2845 607.778 10.6772C608.007 9.8353 608.365 8.63622 608.568 7.99843C609.895 3.66134 610.456 1.59484 610.456 0.88051C610.456 0.115149 610.406 0.0896194 609.437 0.0896194C608.339 0.0896194 607.829 0.574366 607.523 2.00305C607.421 2.41123 607.192 3.22762 607.013 3.78891C606.834 4.35017 606.324 6.00846 605.864 7.48819C605.406 8.96788 604.896 10.6262 604.742 11.1874C604.563 11.7487 604.207 12.8968 603.952 13.7387C603.721 14.5806 603.364 15.7286 603.185 16.2899C602.828 17.4125 601.655 21.2903 600.48 25.2192C600.072 26.6223 599.562 28.2806 599.383 28.9185C599.18 29.5562 598.821 30.7553 598.592 31.5972C598.337 32.4391 598.007 33.5872 597.802 34.1484C597.622 34.7098 597.112 36.368 596.678 37.8478C596.27 39.3274 595.76 41.0367 595.557 41.6746C595.378 42.3123 595.021 43.5114 594.766 44.3533C594.509 45.1952 594.179 46.2923 594 46.777C593.822 47.2617 593.49 48.3588 593.235 49.2007C592.775 50.7569 592.265 52.4662 591.703 54.303C591.55 54.8644 591.193 56.0125 590.938 56.8544C590.683 57.6963 590.351 58.8444 590.173 59.4056C589.994 59.9668 589.662 61.0639 589.433 61.8293C589.204 62.5947 588.668 64.3294 588.26 65.656C587.851 66.9826 587.316 68.7174 587.085 69.4828C586.856 70.2482 586.525 71.3453 586.346 71.9065C586.192 72.4679 585.836 73.6158 585.581 74.4579C585.324 75.2998 584.993 76.4477 584.814 77.0091C584.637 77.5703 584.278 78.7184 584.049 79.5602C583.794 80.4021 583.436 81.5502 583.259 82.1114C583.079 82.6726 582.57 84.3309 582.135 85.8107C581.675 87.2905 581.166 88.9488 580.988 89.51C580.273 91.6785 579.074 95.5054 578.308 98.0566C577.875 99.5362 577.186 101.883 576.752 103.287C576.344 104.69 575.808 106.476 575.603 107.241C575.374 108.006 575.017 109.154 574.838 109.792C574.123 112.139 572.643 117.089 572.414 117.956C572.261 118.441 572.006 119.308 571.827 119.87C571.649 120.431 571.291 121.528 571.062 122.293C569.506 127.498 569.455 127.6 567.465 128.595C565.499 129.59 564.888 130.1 564.3 131.222C563.816 132.166 563.765 132.677 563.765 136.835V141.402L563 141.989C562.259 142.524 561.928 143.315 561.341 145.892L561.162 146.657L560.678 146.045C560.09 145.331 560.064 144.361 560.602 142.575C561.138 140.688 560.805 139.54 559.299 138.136C557.897 136.81 557.846 137.448 559.937 130.202C560.753 127.447 560.933 126.885 562.209 122.931C563.382 119.283 564.428 115.915 564.914 114.129C565.754 110.991 566.368 109.767 567.567 108.797C570.399 106.501 570.628 106.195 572.159 103.057C573.715 99.8424 575.246 95.6839 575.246 94.6635C575.246 94.3318 575.348 93.7195 575.501 93.3113C575.629 92.9031 575.86 91.602 576.011 90.4029C576.497 86.0149 577.059 82.8003 578.104 78.4377C578.793 75.5803 578.947 75.2741 580.323 74.3047C582.161 72.9781 584.151 71.0136 584.866 69.789C585.477 68.7686 585.503 68.5389 585.35 66.7276C585.248 65.6561 584.942 63.9723 584.637 63.0284C584.151 61.3956 584.151 61.2424 584.533 60.222C585.095 58.7167 585.045 58.3595 584.151 57.7218C583.436 57.2371 583.386 57.0839 583.539 56.242C583.693 55.3491 584.866 51.2926 585.555 49.2007C585.758 48.6395 586.268 46.9812 586.728 45.5014C587.188 44.0216 587.877 41.8531 588.26 40.654C589.534 36.7252 591.245 31.3932 592.062 28.6633C592.52 27.1837 593.056 25.5254 593.235 24.964C593.541 24.0456 594.101 22.2853 596.73 13.8662C597.138 12.5396 597.622 10.9833 597.827 10.4221C598.007 9.8608 598.337 8.71276 598.592 7.87087C599.052 6.18704 599.614 4.32467 600.15 2.76841C600.914 0.421293 600.709 -0.165492 599.154 0.0386129ZM562.311 113.287C562.386 113.415 562.056 114.691 561.57 116.17C560.321 120.023 560.04 120.941 559.554 122.803C558.61 126.248 555.396 136.299 554.962 137.09C554.503 137.932 552.028 139.667 551.391 139.565C550.855 139.514 550.676 138.8 549.604 132.498C549.375 131.171 549.017 129.258 548.813 128.289C548.583 127.294 548.304 126.018 548.176 125.406C547.537 122.421 547.869 122.089 553.304 120.456C554.35 120.15 554.503 119.997 554.962 118.823C555.677 117.012 555.856 116.859 558.917 114.869C561.52 113.16 562.082 112.905 562.311 113.287ZM506.434 139.642C507.633 141.759 508.806 144.03 511.05 148.392C513.807 153.826 513.731 153.673 515.541 156.327C517.71 159.515 518.654 161.097 518.501 161.454C518.196 162.271 515.057 162.041 513.169 161.072C511.843 160.383 505.49 155.536 504.06 154.158C503.422 153.546 502.452 152.347 501.917 151.505C500.947 150.05 498.752 147.066 498.447 146.785C498.37 146.708 497.86 146.045 497.324 145.305L496.354 143.979L497.121 143.264C498.192 142.244 501.968 140.024 503.167 139.693C503.729 139.54 504.418 139.233 504.697 139.004C505.412 138.468 505.872 138.621 506.434 139.642ZM555.243 141.81C555.625 142.167 556.085 142.448 556.264 142.448C556.85 142.448 557.336 143.188 557.489 144.412C557.591 145.076 557.845 146.198 558.049 146.887C558.254 147.576 558.407 148.698 558.407 149.362C558.407 150.382 558.254 150.765 557.616 151.505C557.182 151.989 556.621 152.398 556.366 152.398C555.83 152.398 554.912 151.25 554.579 150.153C554.452 149.77 554.119 148.826 553.814 148.06C552.769 145.356 552.231 143.443 552.385 142.882C552.512 142.371 553.916 141.172 554.376 141.172C554.478 141.172 554.86 141.453 555.243 141.81ZM567.592 144.03C567.592 145.331 567.413 147.295 567.21 148.392C567.005 149.489 566.826 150.459 566.826 150.535C566.826 150.79 563.434 150.382 563.153 150.101C562.974 149.923 563.026 149.438 563.331 148.494C563.97 146.657 564.53 145.254 564.938 144.438C565.143 144.081 565.296 143.596 565.296 143.366C565.296 142.754 566.443 141.683 567.083 141.683C567.567 141.683 567.592 141.836 567.592 144.03ZM561.213 151.734C561.622 152.27 561.673 154.286 561.239 154.796C560.397 155.791 559.427 154.923 559.427 153.138C559.427 151.683 560.473 150.867 561.213 151.734ZM565.143 167.577C565.551 168.419 566.035 169.72 566.214 170.511C566.393 171.277 566.597 172.093 566.674 172.297C566.75 172.501 566.724 172.834 566.597 173.037C566.214 173.649 565.577 172.935 564.633 170.843C563.382 168.139 563.127 167.144 563.51 166.455C563.944 165.638 564.326 165.894 565.143 167.577ZM523.809 176.557C523.604 178.165 523.528 178.292 522.916 178.37C522.558 178.42 522.124 178.267 521.921 178.037C521.538 177.579 521.767 176.89 522.865 175.282C523.783 173.93 524.115 174.364 523.809 176.557ZM527.278 189.544C527.278 190.283 527.023 190.921 526.742 190.921C526.436 190.921 526.181 189.263 526.386 188.6C526.565 188.038 526.589 188.038 526.922 188.498C527.125 188.753 527.278 189.237 527.278 189.544ZM522.94 194.11C522.94 195.13 522.61 195.411 522.074 194.849C521.588 194.391 521.538 193.702 521.946 193.294C522.43 192.809 522.94 193.218 522.94 194.11ZM581.701 206.356C584.023 206.687 584.942 207.02 584.942 207.504C584.942 207.657 581.267 209.546 580.962 209.546C580.911 209.546 580.401 208.958 579.839 208.245C578.921 207.07 578.513 205.948 579.022 205.974C579.124 205.974 580.323 206.151 581.701 206.356ZM528.222 206.535C528.758 207.223 529.319 210.056 529.319 211.942C529.319 214.418 528.835 214.468 528.375 212.072C528.196 211.177 527.891 209.571 527.712 208.524C527.509 207.478 527.38 206.535 527.457 206.408C527.611 206.127 527.941 206.177 528.222 206.535ZM525.008 208.065C525.468 208.448 526.258 211.203 526.258 212.428C526.258 213.448 526.947 215.847 527.431 216.56C528.045 217.429 527.866 217.913 526.87 218.118C525.645 218.347 524.804 217.709 523.91 215.897C523.324 214.723 523.221 214.188 523.221 212.173C523.195 210.566 523.325 209.494 523.604 208.781C524.038 207.709 524.37 207.555 525.008 208.065Z" fill="#FF4500"/>
<path d="M38.0379 241.577C27.0127 241.577 18.6749 238.475 13.0245 232.272C7.37404 225.931 4.54883 216.903 4.54883 205.186V196.915H26.048V206.84C26.048 216.213 29.9757 220.9 37.8312 220.9C41.69 220.9 44.5841 219.797 46.5135 217.592C48.5808 215.248 49.6144 211.527 49.6144 206.426C49.6144 200.361 48.2362 195.054 45.4799 190.505C42.7236 185.818 37.6245 180.235 30.1824 173.757C20.811 165.486 14.2648 158.042 10.5438 151.426C6.82278 144.671 4.96227 137.09 4.96227 128.681C4.96227 117.24 7.85639 108.418 13.6446 102.215C19.4329 95.8736 27.8396 92.7031 38.8648 92.7031C49.7522 92.7031 57.9522 95.8736 63.4648 102.215C69.1152 108.418 71.9404 117.378 71.9404 129.095V135.091H50.4413V127.647C50.4413 122.685 49.4766 119.101 47.5471 116.895C45.6177 114.552 42.7925 113.38 39.0715 113.38C31.4917 113.38 27.7018 117.998 27.7018 127.234C27.7018 132.472 29.0799 137.365 31.8362 141.914C34.7303 146.463 39.8984 151.977 47.3404 158.456C56.8497 166.727 63.3959 174.239 66.9791 180.994C70.5623 187.748 72.3539 195.674 72.3539 204.772C72.3539 216.627 69.3908 225.725 63.4648 232.066C57.6766 238.407 49.2009 241.577 38.0379 241.577ZM102.358 94.7708H133.159L156.726 239.509H133.986L129.852 210.768V211.182H104.012L99.8771 239.509H78.7914L102.358 94.7708ZM127.164 191.539L117.035 119.997H116.622L106.699 191.539H127.164ZM167.758 94.7708H227.914V115.448H190.498V155.768H219.852V176.445H190.498V239.509H167.758V94.7708ZM238.819 94.7708H300.836V115.448H261.559V153.7H292.774V174.377H261.559V218.832H300.836V239.509H238.819V94.7708ZM331.696 115.448H307.923V94.7708H378.209V115.448H354.436V239.509H331.696V115.448ZM410.904 177.892L383.409 94.7708H407.596L423.1 147.911H423.514L439.018 94.7708H461.137L433.643 177.892V239.509H410.904V177.892Z" fill="white"/>
<path d="M658.273 87.8782H689.075L712.641 232.617H689.902L685.768 203.876V204.289H659.927L655.793 232.617H634.707L658.273 87.8782ZM683.08 184.646L672.951 113.104H672.537L662.615 184.646H683.08ZM755.313 234.684C744.425 234.684 736.087 231.583 730.299 225.38C724.649 219.177 721.823 210.423 721.823 199.12V121.375C721.823 110.071 724.649 101.318 730.299 95.1152C736.087 88.9121 744.425 85.8105 755.313 85.8105C766.2 85.8105 774.469 88.9121 780.119 95.1152C785.907 101.318 788.802 110.071 788.802 121.375V136.676H767.302V119.927C767.302 110.967 763.512 106.487 755.933 106.487C748.353 106.487 744.563 110.967 744.563 119.927V200.774C744.563 209.596 748.353 214.007 755.933 214.007C763.512 214.007 767.302 209.596 767.302 200.774V178.65H788.802V199.12C788.802 210.423 785.907 219.177 780.119 225.38C774.469 231.583 766.2 234.684 755.313 234.684ZM819.977 87.8782H850.779L874.345 232.617H851.606L847.471 203.876V204.289H821.631L817.496 232.617H796.411L819.977 87.8782ZM844.784 184.646L834.654 113.104H834.241L824.318 184.646H844.784ZM885.377 87.8782H920.107C931.408 87.8782 939.883 90.9109 945.534 96.9761C951.184 103.041 954.009 111.932 954.009 123.649V196.846C954.009 208.563 951.184 217.454 945.534 223.519C939.883 229.584 931.408 232.617 920.107 232.617H885.377V87.8782ZM919.693 211.94C923.414 211.94 926.239 210.837 928.169 208.631C930.236 206.426 931.27 202.842 931.27 197.879V122.615C931.27 117.653 930.236 114.069 928.169 111.863C926.239 109.658 923.414 108.555 919.693 108.555H908.117V211.94H919.693ZM969.358 87.8782H1031.38V108.555H992.098V146.807H1023.31V167.484H992.098V211.94H1031.38V232.617H969.358V87.8782ZM1044.46 87.8782H1076.91L1091.38 191.47H1091.8L1106.27 87.8782H1138.72V232.617H1117.22V123.029H1116.81L1100.27 232.617H1081.25L1064.72 123.029H1064.3V232.617H1044.46V87.8782ZM1176.57 170.999L1149.08 87.8782H1173.26L1188.77 141.018H1189.18L1204.68 87.8782H1226.8L1199.31 170.999V232.617H1176.57V170.999Z" fill="white"/>
</svg>
