<svg width="1251" height="336" viewBox="0 0 1251 336" fill="none" xmlns="http://www.w3.org/2000/svg">
<path d="M608.605 0.0376363C607.737 0.139676 607.328 0.751966 606.665 2.895C606.028 4.88495 604.701 9.171 604.166 10.9314C603.937 11.6202 603.604 12.6152 603.451 13.0999C603.12 13.9928 602.329 16.544 600.746 21.774C600.312 23.2538 599.625 25.4223 599.216 26.6213C598.832 27.8204 598.143 29.9889 597.685 31.4687C597.251 32.9483 596.562 35.117 596.179 36.3161C595.797 37.5152 595.184 39.5051 594.775 40.7807C594.393 42.0308 593.857 43.7656 593.576 44.6075C593.321 45.4494 592.939 46.6485 592.76 47.2862C591.357 51.9041 590.718 53.9194 590.388 54.7358C590.158 55.2716 589.111 56.5217 588.04 57.5421C582.172 63.1549 582.12 63.2314 581.278 67.3134C580.794 69.5329 580.232 71.8545 579.722 73.4363C579.543 73.9975 579.187 75.1966 578.958 76.1152C577.629 81.0644 576.048 84.4831 571.455 92.3154C570.792 93.438 569.796 95.4278 569.236 96.7545C568.139 99.4077 567.271 100.479 566.02 100.734C564.516 101.041 562.652 101.704 560.587 102.673C557.243 104.23 555.586 104.714 553.901 104.638C552.421 104.561 552.421 104.561 552.497 103.796C552.626 102.546 553.927 98.9995 554.335 98.821C554.538 98.6934 555.024 98.4893 555.432 98.3362C556.351 97.9791 556.325 97.2392 555.355 94.3819C554.616 92.2389 554.564 91.2438 555.126 90.5039C555.253 90.3509 555.56 89.56 555.815 88.7181C556.249 87.2385 556.275 87.2128 557.651 86.7536C558.418 86.4986 559.131 86.1924 559.259 86.0904C559.362 85.9884 559.209 85.3505 558.928 84.6871C558.621 84.0494 558.213 82.7227 558.01 81.7788C556.707 75.6303 554.283 72.1607 549.488 69.5584C543.288 66.1908 537.088 65.7571 531.728 68.3339C528.157 70.0432 526.371 72.4157 524.993 77.2631C524.049 80.5542 523.768 81.8298 523.614 83.4116C523.539 84.4066 523.284 85.6567 523.055 86.1924C522.85 86.7026 522.722 87.2895 522.774 87.468C522.951 87.8762 525.094 88.4631 525.656 88.2589C526.166 88.0547 527.289 88.7436 527.289 89.2283C527.289 89.407 527.468 89.9172 527.697 90.3509C528.514 92.0092 528.948 100.071 528.285 101.627C527.239 104.204 526.397 104.918 523.947 105.327C522.595 105.556 520.426 106.602 517.874 108.286C516.853 108.975 515.118 109.842 514.072 110.225C511.623 111.118 509.531 113.057 507.797 116.042C507.132 117.164 506.494 118.261 506.367 118.465C506.239 118.67 505.883 119.307 505.602 119.843C504.963 121.017 503.407 123.083 500.882 126.119C498.763 128.67 498.739 128.696 496.162 133.39C495.855 133.951 495.395 134.742 495.14 135.176C494.63 135.992 494.401 136.375 493.125 138.722C491.135 142.345 489.783 146.707 490.139 148.238C490.267 148.672 491.288 149.896 492.666 151.249C493.967 152.499 495.881 154.463 496.927 155.611C498.585 157.397 501.876 160.101 503.051 160.637C503.254 160.739 504.019 161.173 504.708 161.581C505.423 162.015 506.723 162.704 507.643 163.137C514.124 166.224 516.14 167.5 519.125 170.459C520.043 171.352 521.396 172.552 522.135 173.112C523.411 174.108 523.718 174.719 523.232 175.255C522.875 175.612 522.033 177.857 521.599 179.566C520.681 183.113 520.374 184.874 520.119 188.37C519.763 193.649 519.354 271.82 519.711 272.253C519.864 272.458 520.35 272.559 520.886 272.508L521.804 272.432L521.981 267.712C522.085 265.11 522.288 246.46 522.441 226.255C522.569 205.998 522.798 188.776 522.951 187.858C523.079 186.94 523.31 185.358 523.437 184.338C523.718 182.348 523.947 181.429 524.789 178.546C525.478 176.2 525.682 175.996 527.494 175.996C528.795 175.996 529.101 175.893 530.223 175.026C531.627 173.954 532.009 174.158 531.065 175.435C530.199 176.582 529.764 177.781 529.944 178.496C530.019 178.801 530.428 179.465 530.862 179.951C531.27 180.409 531.627 180.997 531.627 181.226C531.627 181.455 530.989 182.373 530.223 183.266C528.87 184.848 528.82 184.975 528.82 186.404C528.82 187.22 528.998 188.292 529.229 188.828C529.458 189.39 529.687 190.766 529.764 192.195C529.918 195.41 529.918 195.436 531.244 197.374L532.392 199.058V201.534C532.392 203.472 532.264 204.417 531.78 205.819C530.223 210.463 529.84 214.417 530.734 216.177C532.367 219.366 534.943 220.948 536.807 219.954C537.928 219.366 540.812 216.866 541.322 216.049C541.73 215.386 541.832 214.8 541.832 212.963C541.832 210.284 541.272 208.294 539.816 205.616L538.822 203.803L538.643 199.39C538.414 194.288 538.567 194.033 540.175 196.456C541.629 198.675 544.001 200.871 546.145 201.992L548.034 202.987L547.854 205.182C547.777 206.381 547.574 208.702 547.446 210.31C547.191 213.575 546.528 334.554 546.757 335.166C546.986 335.727 549.105 335.727 549.334 335.166C549.41 334.936 549.488 320.344 549.488 302.715C549.513 265.493 549.922 216.254 550.252 211.457C550.559 206.967 550.967 203.855 551.324 203.65C551.682 203.421 552.83 203.753 554.182 204.467C555.126 204.953 557.831 207.656 562.015 212.222C564.949 215.438 568.649 218.601 572.501 221.127C573.421 221.739 573.905 222.223 573.803 222.454C573.624 222.964 571.404 224.111 570.792 224.036C570.41 223.984 570.256 223.729 570.155 222.938C570.053 222.071 569.924 221.918 569.338 221.84C568.776 221.765 568.521 221.968 567.757 223.167C566.888 224.468 566.709 224.596 565.076 225.082C564.108 225.387 563.164 225.617 562.959 225.617C562.015 225.617 556.962 227.811 556.07 228.628C554.514 230.004 556.962 236.587 560.535 240.567C561.887 242.073 562.067 242.404 562.78 244.649C564.694 250.721 565.739 252.864 568.267 255.797C569.236 256.895 570.384 258.221 570.792 258.706L571.557 259.598L571.455 266.513C571.429 270.34 571.276 273.657 571.149 273.886C570.971 274.217 570.589 274.344 569.796 274.344C568.342 274.344 567.986 274.753 568.342 276.054C568.852 277.866 568.701 278.861 567.653 280.416C565.944 282.942 564.082 286.259 563.75 287.331C563.495 288.172 563.495 288.658 563.776 289.805C564.082 291.005 564.337 291.413 565.46 292.407C566.787 293.607 569.211 294.959 570.919 295.495C572.527 296.005 573.395 296.718 574.594 298.557C576.15 300.98 577.91 302.613 580.003 303.633C580.973 304.117 581.967 304.603 582.198 304.731C582.453 304.858 583.294 305.189 584.11 305.444C588.882 307.078 593.295 307.179 594.879 305.699C595.159 305.444 595.516 304.603 595.695 303.812C596.078 302.077 595.823 301.388 593.959 299.348C590.158 295.113 588.448 292.509 585.974 287.279C584.672 284.498 584.391 283.07 584.927 281.667C585.285 280.775 584.799 280.263 583.55 280.161L582.529 280.086L582.325 278.171C582.019 275.494 582.3 268.81 582.809 266.615C583.574 263.274 584.723 259.064 585.158 258.016C585.871 256.257 587.249 251.179 588.934 243.985C589.878 239.979 590.923 237.097 591.766 236.178C592.174 235.72 592.606 235.566 593.373 235.566C594.624 235.566 594.699 235.413 595.134 232.122C595.44 229.801 595.847 227.122 596.103 225.795C596.231 225.056 596.793 224.723 599.368 223.755C601.053 223.117 604.446 221.713 604.727 221.535C605.237 221.177 609.115 219.111 611.029 218.167C613.224 217.095 614.321 216.968 616.004 217.605C616.846 217.938 617.179 217.964 617.458 217.733C618.454 216.918 623.148 210.284 623.71 208.931C624.526 206.917 624.679 204.568 624.118 202.401C623.582 200.309 622.817 199.008 621.132 197.325C619.883 196.099 615.086 192.707 613.019 191.583C612.534 191.328 611.208 190.511 610.085 189.772C607.942 188.394 603.63 185.818 603.451 185.818C603.401 185.818 602.098 185.23 600.593 184.517C594.47 181.608 593.602 181.226 593.347 181.226C593.194 181.226 592.837 181.098 592.531 180.919C591.867 180.537 590.848 180.154 588.398 179.311C583.983 177.833 582.911 177.092 582.095 175C581.686 173.98 581.202 173.239 580.513 172.705C579.977 172.271 579.34 171.505 579.085 171.021C578.651 170.153 577.044 164.056 577.044 163.239C577.044 163.01 576.711 161.989 576.277 160.994C575.564 159.209 574.875 155.331 575.156 154.591C575.231 154.412 575.741 153.876 576.303 153.417C578.089 151.988 578.498 151.096 578.804 147.932C578.958 146.376 579.135 143.85 579.213 142.319C579.39 139.156 579.902 137.14 580.896 135.814C581.636 134.819 582.401 133.007 582.401 132.268C582.401 131.987 582.734 131.502 583.142 131.17C584.622 129.92 584.622 129.206 583.116 127.956C582.3 127.267 582.248 126.859 582.758 125.303C582.937 124.69 583.294 123.466 583.55 122.547C583.805 121.629 584.136 120.43 584.315 119.869C584.494 119.307 584.851 118.159 585.08 117.317C585.335 116.476 585.693 115.327 585.847 114.766C586.024 114.205 586.382 113.057 586.611 112.215C587.376 109.638 587.81 108.184 588.143 107.112C588.32 106.551 588.679 105.403 588.908 104.561C589.163 103.719 589.495 102.571 589.673 102.01C589.852 101.449 590.208 100.301 590.439 99.4587C590.694 98.6168 591.051 97.4688 591.204 96.9076C591.383 96.3463 591.714 95.1983 591.969 94.3564C592.224 93.5145 592.556 92.3154 592.76 91.6775C594.699 85.2485 595.669 82.085 596.92 78.0285C597.352 76.6254 597.711 75.3243 597.711 75.1711C597.711 74.9926 597.864 74.4824 598.067 74.023C598.246 73.5638 598.603 72.4924 598.858 71.6505C599.113 70.8086 599.471 69.6095 599.649 68.9717C599.854 68.3339 600.338 66.6245 600.772 65.1449C601.206 63.6651 601.69 61.9558 601.895 61.3181C602.073 60.6802 602.431 59.5321 602.66 58.7667C602.889 58.0013 603.425 56.2665 603.833 54.9399C604.241 53.6133 604.777 51.8786 605.008 51.1132C605.645 48.9702 606.155 47.2607 606.514 46.1383C606.691 45.5769 607.024 44.4288 607.279 43.5869C607.508 42.745 607.866 41.597 608.043 41.0357C608.223 40.4745 608.579 39.3265 608.81 38.4846C609.575 35.9334 610.009 34.4536 610.34 33.3822C610.519 32.8208 611.029 31.1625 611.489 29.6829C611.921 28.2031 612.61 25.907 613.044 24.5804C613.453 23.2538 613.963 21.519 614.193 20.7536C614.423 19.9882 614.753 18.8911 614.932 18.3299C615.494 16.5951 616.771 12.2835 617.229 10.6762C617.458 9.83432 617.816 8.63525 618.02 7.99745C619.346 3.66036 619.908 1.59386 619.908 0.879534C619.908 0.114173 619.858 0.0886429 618.888 0.0886429C617.79 0.0886429 617.28 0.57339 616.974 2.00207C616.872 2.41025 616.643 3.22665 616.464 3.78794C616.285 4.3492 615.775 6.00749 615.315 7.48721C614.857 8.9669 614.347 10.6252 614.193 11.1865C614.014 11.7477 613.658 12.8958 613.403 13.7377C613.172 14.5796 612.815 15.7276 612.636 16.2889C612.28 17.4115 611.106 21.2893 609.932 25.2182C609.523 26.6213 609.013 28.2796 608.834 28.9175C608.631 29.5552 608.273 30.7543 608.043 31.5962C607.788 32.4381 607.458 33.5862 607.253 34.1474C607.074 34.7088 606.564 36.3671 606.13 37.8468C605.721 39.3265 605.211 41.0357 605.008 41.6736C604.829 42.3113 604.472 43.5104 604.217 44.3523C603.961 45.1942 603.63 46.2913 603.451 46.776C603.273 47.2607 602.941 48.3578 602.686 49.1997C602.226 50.756 601.716 52.4653 601.154 54.3021C601.001 54.8634 600.645 56.0115 600.39 56.8534C600.135 57.6953 599.802 58.8434 599.625 59.4046C599.446 59.9658 599.113 61.0629 598.884 61.8283C598.655 62.5937 598.119 64.3285 597.711 65.6551C597.302 66.9817 596.767 68.7165 596.536 69.4819C596.307 70.2472 595.976 71.3443 595.797 71.9055C595.644 72.4669 595.287 73.6148 595.032 74.4569C594.775 75.2988 594.445 76.4467 594.265 77.0081C594.088 77.5693 593.73 78.7174 593.5 79.5593C593.246 80.4012 592.887 81.5493 592.71 82.1105C592.531 82.6717 592.021 84.33 591.587 85.8097C591.127 87.2895 590.617 88.9478 590.439 89.509C589.724 91.6775 588.525 95.5045 587.759 98.0556C587.326 99.5352 586.637 101.882 586.203 103.286C585.795 104.689 585.259 106.475 585.054 107.24C584.825 108.005 584.468 109.153 584.289 109.791C583.574 112.138 582.095 117.088 581.865 117.955C581.712 118.44 581.457 119.307 581.278 119.869C581.101 120.43 580.742 121.527 580.513 122.292C578.958 127.497 578.906 127.599 576.916 128.594C574.951 129.589 574.339 130.099 573.752 131.221C573.268 132.166 573.216 132.676 573.216 136.834V141.401L572.451 141.988C571.71 142.523 571.379 143.314 570.792 145.891L570.613 146.656L570.129 146.044C569.541 145.33 569.515 144.36 570.053 142.574C570.589 140.687 570.256 139.539 568.751 138.135C567.348 136.809 567.297 137.447 569.388 130.201C570.205 127.446 570.384 126.884 571.66 122.93C572.833 119.282 573.879 115.914 574.365 114.128C575.206 110.99 575.819 109.766 577.018 108.796C579.85 106.5 580.079 106.194 581.611 103.056C583.166 99.8414 584.698 95.683 584.698 94.6626C584.698 94.3309 584.799 93.7185 584.953 93.3103C585.08 92.9021 585.311 91.601 585.462 90.4019C585.948 86.0139 586.51 82.7993 587.555 78.4367C588.245 75.5793 588.398 75.2731 589.774 74.3037C591.612 72.9771 593.602 71.0126 594.317 69.788C594.929 68.7676 594.954 68.538 594.801 66.7267C594.699 65.6551 594.393 63.9713 594.088 63.0274C593.602 61.3946 593.602 61.2414 593.985 60.221C594.546 58.7157 594.496 58.3585 593.602 57.7208C592.887 57.2361 592.837 57.0829 592.991 56.241C593.144 55.3481 594.317 51.2917 595.006 49.1997C595.209 48.6385 595.719 46.9802 596.179 45.5004C596.639 44.0206 597.328 41.8521 597.711 40.6531C598.986 36.7243 600.696 31.3922 601.513 28.6623C601.971 27.1827 602.507 25.5244 602.686 24.9631C602.992 24.0447 603.552 22.2844 606.181 13.8653C606.59 12.5386 607.074 10.9824 607.279 10.4211C607.458 9.85982 607.788 8.71179 608.043 7.86989C608.503 6.18606 609.065 4.32369 609.601 2.76743C610.366 0.420317 610.161 -0.166469 608.605 0.0376363ZM571.762 113.286C571.838 113.414 571.507 114.69 571.021 116.169C569.772 120.022 569.491 120.94 569.006 122.802C568.062 126.247 564.847 136.298 564.413 137.089C563.955 137.931 561.479 139.666 560.842 139.564C560.306 139.513 560.127 138.799 559.055 132.497C558.826 131.17 558.468 129.257 558.265 128.288C558.034 127.293 557.755 126.017 557.627 125.405C556.988 122.42 557.321 122.088 562.756 120.455C563.801 120.149 563.955 119.996 564.413 118.823C565.128 117.011 565.307 116.858 568.368 114.868C570.971 113.159 571.533 112.904 571.762 113.286ZM515.885 139.641C517.084 141.758 518.257 144.029 520.502 148.391C523.258 153.825 523.182 153.672 524.993 156.326C527.161 159.515 528.105 161.096 527.952 161.453C527.647 162.27 524.509 162.04 522.62 161.071C521.294 160.382 514.941 155.535 513.511 154.157C512.873 153.545 511.904 152.346 511.368 151.504C510.398 150.049 508.203 147.065 507.898 146.784C507.821 146.707 507.311 146.044 506.775 145.304L505.805 143.978L506.572 143.263C507.643 142.243 511.42 140.023 512.619 139.692C513.18 139.539 513.869 139.232 514.148 139.003C514.863 138.467 515.323 138.62 515.885 139.641ZM564.694 141.809C565.076 142.166 565.536 142.447 565.715 142.447C566.301 142.447 566.787 143.187 566.94 144.411C567.042 145.075 567.297 146.197 567.5 146.886C567.705 147.575 567.858 148.697 567.858 149.361C567.858 150.381 567.705 150.764 567.068 151.504C566.633 151.988 566.072 152.397 565.817 152.397C565.281 152.397 564.363 151.249 564.03 150.152C563.903 149.769 563.57 148.825 563.266 148.06C562.22 145.355 561.682 143.442 561.836 142.881C561.963 142.37 563.367 141.171 563.827 141.171C563.929 141.171 564.311 141.452 564.694 141.809ZM577.044 144.029C577.044 145.33 576.864 147.294 576.661 148.391C576.456 149.488 576.277 150.458 576.277 150.534C576.277 150.789 572.885 150.381 572.604 150.1C572.425 149.922 572.477 149.437 572.782 148.493C573.421 146.656 573.981 145.253 574.389 144.437C574.594 144.08 574.747 143.595 574.747 143.365C574.747 142.753 575.895 141.682 576.534 141.682C577.018 141.682 577.044 141.835 577.044 144.029ZM570.665 151.733C571.073 152.269 571.124 154.285 570.69 154.795C569.848 155.79 568.878 154.922 568.878 153.137C568.878 151.682 569.924 150.866 570.665 151.733ZM574.594 167.576C575.002 168.418 575.486 169.719 575.665 170.51C575.845 171.276 576.048 172.092 576.125 172.296C576.201 172.5 576.175 172.833 576.048 173.036C575.665 173.648 575.028 172.934 574.084 170.842C572.833 168.138 572.578 167.143 572.961 166.454C573.395 165.637 573.777 165.893 574.594 167.576ZM533.26 176.556C533.055 178.164 532.979 178.291 532.367 178.369C532.009 178.419 531.575 178.266 531.372 178.036C530.989 177.578 531.218 176.889 532.316 175.281C533.234 173.929 533.566 174.363 533.26 176.556ZM536.729 189.543C536.729 190.282 536.474 190.92 536.194 190.92C535.887 190.92 535.632 189.262 535.837 188.599C536.016 188.037 536.04 188.037 536.373 188.497C536.576 188.752 536.729 189.236 536.729 189.543ZM532.392 194.109C532.392 195.129 532.061 195.41 531.525 194.848C531.039 194.39 530.989 193.701 531.398 193.293C531.882 192.808 532.392 193.217 532.392 194.109ZM591.152 206.355C593.475 206.686 594.393 207.019 594.393 207.503C594.393 207.656 590.718 209.545 590.413 209.545C590.362 209.545 589.852 208.957 589.29 208.244C588.372 207.069 587.964 205.947 588.474 205.973C588.575 205.973 589.774 206.15 591.152 206.355ZM537.673 206.534C538.209 207.222 538.771 210.055 538.771 211.941C538.771 214.417 538.287 214.467 537.827 212.071C537.647 211.176 537.343 209.57 537.163 208.523C536.96 207.477 536.831 206.534 536.908 206.407C537.062 206.126 537.393 206.176 537.673 206.534ZM534.459 208.064C534.919 208.447 535.709 211.202 535.709 212.427C535.709 213.447 536.398 215.846 536.883 216.559C537.496 217.428 537.317 217.912 536.321 218.117C535.096 218.346 534.255 217.709 533.361 215.896C532.776 214.722 532.672 214.187 532.672 212.172C532.646 210.565 532.776 209.493 533.055 208.78C533.489 207.708 533.821 207.554 534.459 208.064Z" fill="#FE4D01"/>
<path d="M47.4891 241.577C36.4639 241.577 28.1261 238.475 22.4756 232.272C16.8252 225.931 14 216.903 14 205.186V196.915H35.4992V206.84C35.4992 216.213 39.4269 220.9 47.2824 220.9C51.1412 220.9 54.0353 219.797 55.9647 217.592C58.0319 215.248 59.0655 211.527 59.0655 206.426C59.0655 200.361 57.6874 195.054 54.9311 190.505C52.1748 185.818 47.0756 180.235 39.6336 173.757C30.2622 165.486 23.716 158.042 19.995 151.426C16.2739 144.671 14.4134 137.09 14.4134 128.681C14.4134 117.24 17.3076 108.418 23.0958 102.215C28.884 95.8736 37.2908 92.7031 48.316 92.7031C59.2034 92.7031 67.4034 95.8736 72.916 102.215C78.5664 108.418 81.3916 117.378 81.3916 129.095V135.091H59.8924V127.647C59.8924 122.685 58.9277 119.101 56.9983 116.895C55.0689 114.552 52.2437 113.38 48.5227 113.38C40.9429 113.38 37.1529 117.998 37.1529 127.234C37.1529 132.472 38.5311 137.365 41.2874 141.914C44.1815 146.463 49.3496 151.977 56.7916 158.456C66.3008 166.727 72.8471 174.239 76.4303 180.994C80.0134 187.748 81.805 195.674 81.805 204.772C81.805 216.627 78.842 225.725 72.916 232.066C67.1277 238.407 58.6521 241.577 47.4891 241.577ZM111.809 94.7708H142.611L166.177 239.509H143.438L139.303 210.768V211.182H113.463L109.328 239.509H88.2426L111.809 94.7708ZM136.616 191.539L126.486 119.997H126.073L116.15 191.539H136.616ZM177.209 94.7708H237.366V115.448H199.949V155.768H229.303V176.445H199.949V239.509H177.209V94.7708ZM248.27 94.7708H310.287V115.448H271.01V153.7H302.225V174.377H271.01V218.832H310.287V239.509H248.27V94.7708ZM341.147 115.448H317.374V94.7708H387.66V115.448H363.887V239.509H341.147V115.448ZM420.355 177.892L392.861 94.7708H417.047L432.551 147.911H432.965L448.469 94.7708H470.588L443.094 177.892V239.509H420.355V177.892Z" fill="white"/>
<path d="M667.727 87.8763H698.528L722.095 232.615H699.355L695.221 203.874V204.287H669.38L665.246 232.615H644.16L667.727 87.8763ZM692.533 184.644L682.404 113.102H681.99L672.068 184.644H692.533ZM764.766 234.682C753.878 234.682 745.54 231.581 739.752 225.378C734.102 219.175 731.277 210.421 731.277 199.118V121.373C731.277 110.07 734.102 101.316 739.752 95.1132C745.54 88.9101 753.878 85.8086 764.766 85.8086C775.653 85.8086 783.922 88.9101 789.572 95.1132C795.361 101.316 798.255 110.07 798.255 121.373V136.674H776.756V119.926C776.756 110.966 772.966 106.486 765.386 106.486C757.806 106.486 754.016 110.966 754.016 119.926V200.772C754.016 209.594 757.806 214.005 765.386 214.005C772.966 214.005 776.756 209.594 776.756 200.772V178.648H798.255V199.118C798.255 210.421 795.361 219.175 789.572 225.378C783.922 231.581 775.653 234.682 764.766 234.682ZM829.43 87.8763H860.232L883.798 232.615H861.059L856.924 203.874V204.287H831.084L826.95 232.615H805.864L829.43 87.8763ZM854.237 184.644L844.107 113.102H843.694L833.771 184.644H854.237ZM894.83 87.8763H929.56C940.861 87.8763 949.336 90.9089 954.987 96.9741C960.637 103.039 963.462 111.93 963.462 123.647V196.844C963.462 208.561 960.637 217.452 954.987 223.517C949.336 229.582 940.861 232.615 929.56 232.615H894.83V87.8763ZM929.146 211.938C932.867 211.938 935.693 210.835 937.622 208.63C939.689 206.424 940.723 202.84 940.723 197.878V122.614C940.723 117.651 939.689 114.067 937.622 111.862C935.693 109.656 932.867 108.553 929.146 108.553H917.57V211.938H929.146ZM978.811 87.8763H1040.83V108.553H1001.55V146.806H1032.77V167.482H1001.55V211.938H1040.83V232.615H978.811V87.8763ZM1053.91 87.8763H1086.37L1100.84 191.468H1101.25L1115.72 87.8763H1148.18V232.615H1126.68V123.027H1126.26L1109.73 232.615H1090.71L1074.17 123.027H1073.76V232.615H1053.91V87.8763ZM1186.02 170.998L1158.53 87.8763H1182.72L1198.22 141.016H1198.63L1214.14 87.8763H1236.26L1208.76 170.998V232.615H1186.02V170.998Z" fill="white"/>
</svg>
